<svg xmlns="http://www.w3.org/2000/svg">
<symbol id="settings" viewBox="0 0 24 24">
<path d="M6 18H18V15H6V18ZM6 13.512H18V10.512H6V13.512ZM6 9H18V6H6V9Z" fill="white"/>
</symbol>
<symbol id="svgcatalog" viewBox="0 0 24 24">
<rect x="1" y="14.6797" width="8.39503" height="8.11802" rx="2" stroke="white" stroke-width="2"/>
<rect x="13" y="14.882" width="8.39503" height="8.11802" rx="2" stroke="white" stroke-width="2"/>
<rect x="1" y="2.87534" width="8.39503" height="8.11802" rx="2" stroke="white" stroke-width="2"/>
<rect x="1.3869" y="-0.352093" width="8.19117" height="8.32333" rx="2" transform="matrix(0.521534 -0.85323 0.865368 0.501137 10.7198 9.70314)" stroke="white" stroke-width="2"/>
</symbol>
<symbol id="searchsvg" viewBox="0 0 20 20">
<path fill-rule="evenodd" clip-rule="evenodd" d="M8.33333 4.16667C6.03215 4.16667 4.16667 6.03215 4.16667 8.33333C4.16667 10.6345 6.03215 12.5 8.33333 12.5C9.48417 12.5 10.5247 12.0346 11.2796 11.2796C12.0346 10.5247 12.5 9.48417 12.5 8.33333C12.5 6.03215 10.6345 4.16667 8.33333 4.16667ZM2.5 8.33333C2.5 5.11168 5.11168 2.5 8.33333 2.5C11.555 2.5 14.1667 5.11168 14.1667 8.33333C14.1667 9.64325 13.7342 10.8532 13.0052 11.8267L17.2559 16.0774C17.5813 16.4028 17.5813 16.9305 17.2559 17.2559C16.9305 17.5813 16.4028 17.5813 16.0774 17.2559L11.8267 13.0052C10.8532 13.7342 9.64325 14.1667 8.33333 14.1667C5.11168 14.1667 2.5 11.555 2.5 8.33333Z" fill="black"/>
</symbol>
<symbol id="microphone" viewBox="0 0 14 19">
<path d="M8.4942 7.68091V9.57768C8.49384 10.8864 8.10315 12.068 7.46949 12.9293C6.83479 13.7894 5.96444 14.3196 5.00016 14.3196C4.03583 14.3196 3.16517 13.7894 2.53047 12.9293C1.89681 12.068 1.50612 10.8864 1.50579 9.57768V7.68091H0.474686V9.57768C0.47567 12.7294 2.23043 15.3272 4.48462 15.6761V19H5.51572V15.6761C7.76956 15.3272 9.52429 12.7294 9.5253 9.57768V7.68091H8.4942Z" fill="#3095CE"/>
<path d="M5.00017 12.7808C6.30143 12.7808 7.36007 11.3437 7.36007 9.57763V3.20321C7.36007 1.43717 6.30145 0 5.00017 0C3.69888 0 2.63991 1.43717 2.63991 3.20321V9.57767C2.63991 11.3437 3.69888 12.7808 5.00017 12.7808Z" fill="#3095CE"/>
</symbol>
<symbol id="basket" viewBox="0 0 24 24">
<g clip-path="url(#clip0_149_85)">
<path d="M23.8043 6.65626C23.6648 6.45826 23.4375 6.33976 23.1953 6.33976H7.27802L6.07276 2.18476C5.60027 0.548259 4.47752 0.372009 4.01701 0.372009H0.804015C0.392265 0.372009 0.0592651 0.705759 0.0592651 1.11676C0.0592651 1.52776 0.393015 1.86151 0.804015 1.86151H4.01627C4.11827 1.86151 4.42802 1.86151 4.63951 2.59201L8.78477 17.8253C8.87477 18.1463 9.16801 18.3683 9.50176 18.3683H19.626C19.9403 18.3683 20.2208 18.1718 20.3265 17.8755L23.895 7.33576C23.9775 7.10776 23.943 6.85351 23.8035 6.65551L23.8043 6.65626ZM19.1025 16.8795H10.068L7.69726 7.83001H22.137L19.1025 16.8795ZM17.625 19.878C16.5893 19.878 15.75 20.7173 15.75 21.753C15.75 22.7888 16.5893 23.628 17.625 23.628C18.6608 23.628 19.5 22.7888 19.5 21.753C19.5 20.7173 18.6608 19.878 17.625 19.878ZM10.875 19.878C9.83926 19.878 9.00002 20.7173 9.00002 21.753C9.00002 22.7888 9.83926 23.628 10.875 23.628C11.9108 23.628 12.75 22.7888 12.75 21.753C12.75 20.7173 11.9108 19.878 10.875 19.878Z" fill="white" stroke="white" stroke-width="0.001"/>
</g>
<defs>
<clipPath id="clip0_149_85">
<rect width="24" height="24" fill="white"/>
</clipPath>
</defs>
</symbol>
</svg>