<svg width="24" height="24" viewBox="0 0 24 24" fill="none" xmlns="http://www.w3.org/2000/svg">
<g clip-path="url(#clip0_149_85)">
<path d="M23.8043 6.65626C23.6648 6.45826 23.4375 6.33976 23.1953 6.33976H7.27802L6.07276 2.18476C5.60027 0.548259 4.47752 0.372009 4.01701 0.372009H0.804015C0.392265 0.372009 0.0592651 0.705759 0.0592651 1.11676C0.0592651 1.52776 0.393015 1.86151 0.804015 1.86151H4.01627C4.11827 1.86151 4.42802 1.86151 4.63951 2.59201L8.78477 17.8253C8.87477 18.1463 9.16801 18.3683 9.50176 18.3683H19.626C19.9403 18.3683 20.2208 18.1718 20.3265 17.8755L23.895 7.33576C23.9775 7.10776 23.943 6.85351 23.8035 6.65551L23.8043 6.65626ZM19.1025 16.8795H10.068L7.69726 7.83001H22.137L19.1025 16.8795ZM17.625 19.878C16.5893 19.878 15.75 20.7173 15.75 21.753C15.75 22.7888 16.5893 23.628 17.625 23.628C18.6608 23.628 19.5 22.7888 19.5 21.753C19.5 20.7173 18.6608 19.878 17.625 19.878ZM10.875 19.878C9.83926 19.878 9.00002 20.7173 9.00002 21.753C9.00002 22.7888 9.83926 23.628 10.875 23.628C11.9108 23.628 12.75 22.7888 12.75 21.753C12.75 20.7173 11.9108 19.878 10.875 19.878Z" fill="white" stroke="white" stroke-width="0.001"/>
</g>
<defs>
<clipPath id="clip0_149_85">
<rect width="24" height="24" fill="white"/>
</clipPath>
</defs>
</svg>
