<svg width="10" height="19" viewBox="0 0 10 19" fill="none" xmlns="http://www.w3.org/2000/svg">
<path d="M8.4942 7.68091V9.57768C8.49384 10.8864 8.10315 12.068 7.46949 12.9293C6.83479 13.7894 5.96444 14.3196 5.00016 14.3196C4.03583 14.3196 3.16517 13.7894 2.53047 12.9293C1.89681 12.068 1.50612 10.8864 1.50579 9.57768V7.68091H0.474686V9.57768C0.47567 12.7294 2.23043 15.3272 4.48462 15.6761V19H5.51572V15.6761C7.76956 15.3272 9.52429 12.7294 9.5253 9.57768V7.68091H8.4942Z" fill="#3095CE"/>
<path d="M5.00017 12.7808C6.30143 12.7808 7.36007 11.3437 7.36007 9.57763V3.20321C7.36007 1.43717 6.30145 0 5.00017 0C3.69888 0 2.63991 1.43717 2.63991 3.20321V9.57767C2.63991 11.3437 3.69888 12.7808 5.00017 12.7808Z" fill="#3095CE"/>
</svg>
